<mxfile host="app.diagrams.net" modified="2024-04-25T14:42:13.222Z" agent="Mozilla/5.0 (Windows NT 10.0; Win64; x64) AppleWebKit/537.36 (KHTML, like Gecko) Chrome/124.0.0.0 Safari/537.36 Edg/124.0.0.0" etag="0volspIr3q3PeYunUphC" version="24.3.0" type="github">
  <diagram id="C5RBs43oDa-KdzZeNtuy" name="Page-1">
    <mxGraphModel dx="2100" dy="1222" grid="1" gridSize="10" guides="1" tooltips="1" connect="1" arrows="1" fold="1" page="1" pageScale="1" pageWidth="827" pageHeight="1169" math="0" shadow="0">
      <root>
        <mxCell id="WIyWlLk6GJQsqaUBKTNV-0" />
        <mxCell id="WIyWlLk6GJQsqaUBKTNV-1" parent="WIyWlLk6GJQsqaUBKTNV-0" />
        <mxCell id="PgsVm0p4_of5vIdET5s7-9" value="" style="edgeStyle=orthogonalEdgeStyle;rounded=0;orthogonalLoop=1;jettySize=auto;html=1;" edge="1" parent="WIyWlLk6GJQsqaUBKTNV-1" source="PgsVm0p4_of5vIdET5s7-0" target="PgsVm0p4_of5vIdET5s7-3">
          <mxGeometry relative="1" as="geometry" />
        </mxCell>
        <mxCell id="PgsVm0p4_of5vIdET5s7-0" value="网关收到&lt;div&gt;HTTP请求&lt;/div&gt;" style="strokeWidth=2;html=1;shape=mxgraph.flowchart.terminator;whiteSpace=wrap;" vertex="1" parent="WIyWlLk6GJQsqaUBKTNV-1">
          <mxGeometry x="120" y="80" width="100" height="60" as="geometry" />
        </mxCell>
        <mxCell id="PgsVm0p4_of5vIdET5s7-6" value="" style="edgeStyle=orthogonalEdgeStyle;rounded=0;orthogonalLoop=1;jettySize=auto;html=1;" edge="1" parent="WIyWlLk6GJQsqaUBKTNV-1" source="PgsVm0p4_of5vIdET5s7-3" target="PgsVm0p4_of5vIdET5s7-5">
          <mxGeometry relative="1" as="geometry" />
        </mxCell>
        <mxCell id="PgsVm0p4_of5vIdET5s7-3" value="分析请求头的&lt;div&gt;HTTP方法&lt;/div&gt;" style="rounded=1;whiteSpace=wrap;html=1;strokeWidth=2;" vertex="1" parent="WIyWlLk6GJQsqaUBKTNV-1">
          <mxGeometry x="110" y="220" width="120" height="60" as="geometry" />
        </mxCell>
        <mxCell id="PgsVm0p4_of5vIdET5s7-12" value="N" style="edgeStyle=orthogonalEdgeStyle;rounded=0;orthogonalLoop=1;jettySize=auto;html=1;" edge="1" parent="WIyWlLk6GJQsqaUBKTNV-1" source="PgsVm0p4_of5vIdET5s7-5" target="PgsVm0p4_of5vIdET5s7-11">
          <mxGeometry relative="1" as="geometry" />
        </mxCell>
        <mxCell id="PgsVm0p4_of5vIdET5s7-14" value="Y" style="edgeStyle=orthogonalEdgeStyle;rounded=0;orthogonalLoop=1;jettySize=auto;html=1;entryX=0;entryY=0.5;entryDx=0;entryDy=0;" edge="1" parent="WIyWlLk6GJQsqaUBKTNV-1" source="PgsVm0p4_of5vIdET5s7-5" target="PgsVm0p4_of5vIdET5s7-19">
          <mxGeometry relative="1" as="geometry">
            <mxPoint x="170" y="520" as="targetPoint" />
            <Array as="points">
              <mxPoint x="170" y="690" />
            </Array>
          </mxGeometry>
        </mxCell>
        <mxCell id="PgsVm0p4_of5vIdET5s7-5" value="是否为&lt;div&gt;OPTIONS&lt;div&gt;请求?&lt;/div&gt;&lt;/div&gt;" style="rhombus;whiteSpace=wrap;html=1;rounded=1;strokeWidth=2;" vertex="1" parent="WIyWlLk6GJQsqaUBKTNV-1">
          <mxGeometry x="130" y="350" width="80" height="80" as="geometry" />
        </mxCell>
        <mxCell id="PgsVm0p4_of5vIdET5s7-16" value="" style="edgeStyle=orthogonalEdgeStyle;rounded=0;orthogonalLoop=1;jettySize=auto;html=1;" edge="1" parent="WIyWlLk6GJQsqaUBKTNV-1" source="PgsVm0p4_of5vIdET5s7-11" target="PgsVm0p4_of5vIdET5s7-15">
          <mxGeometry relative="1" as="geometry" />
        </mxCell>
        <mxCell id="PgsVm0p4_of5vIdET5s7-11" value="分析请求头的&lt;div&gt;URL部分&lt;/div&gt;" style="whiteSpace=wrap;html=1;rounded=1;strokeWidth=2;" vertex="1" parent="WIyWlLk6GJQsqaUBKTNV-1">
          <mxGeometry x="270" y="360" width="120" height="60" as="geometry" />
        </mxCell>
        <mxCell id="PgsVm0p4_of5vIdET5s7-18" value="N" style="edgeStyle=orthogonalEdgeStyle;rounded=0;orthogonalLoop=1;jettySize=auto;html=1;" edge="1" parent="WIyWlLk6GJQsqaUBKTNV-1" source="PgsVm0p4_of5vIdET5s7-15" target="PgsVm0p4_of5vIdET5s7-17">
          <mxGeometry relative="1" as="geometry" />
        </mxCell>
        <mxCell id="PgsVm0p4_of5vIdET5s7-20" value="Y" style="edgeStyle=orthogonalEdgeStyle;rounded=0;orthogonalLoop=1;jettySize=auto;html=1;" edge="1" parent="WIyWlLk6GJQsqaUBKTNV-1" source="PgsVm0p4_of5vIdET5s7-15" target="PgsVm0p4_of5vIdET5s7-19">
          <mxGeometry relative="1" as="geometry" />
        </mxCell>
        <mxCell id="PgsVm0p4_of5vIdET5s7-15" value="是否为&lt;div&gt;可直接放行&lt;/div&gt;&lt;div&gt;请求?&lt;/div&gt;" style="rhombus;whiteSpace=wrap;html=1;rounded=1;strokeWidth=2;" vertex="1" parent="WIyWlLk6GJQsqaUBKTNV-1">
          <mxGeometry x="290" y="490" width="80" height="80" as="geometry" />
        </mxCell>
        <mxCell id="PgsVm0p4_of5vIdET5s7-24" value="" style="edgeStyle=orthogonalEdgeStyle;rounded=0;orthogonalLoop=1;jettySize=auto;html=1;" edge="1" parent="WIyWlLk6GJQsqaUBKTNV-1" source="PgsVm0p4_of5vIdET5s7-17" target="PgsVm0p4_of5vIdET5s7-23">
          <mxGeometry relative="1" as="geometry" />
        </mxCell>
        <mxCell id="PgsVm0p4_of5vIdET5s7-17" value="使用配置类中指定的&lt;div&gt;响应式认证管理器&lt;/div&gt;&lt;div&gt;进行检查&lt;/div&gt;" style="whiteSpace=wrap;html=1;rounded=1;strokeWidth=2;" vertex="1" parent="WIyWlLk6GJQsqaUBKTNV-1">
          <mxGeometry x="430" y="500" width="120" height="60" as="geometry" />
        </mxCell>
        <mxCell id="PgsVm0p4_of5vIdET5s7-32" value="" style="edgeStyle=orthogonalEdgeStyle;rounded=0;orthogonalLoop=1;jettySize=auto;html=1;" edge="1" parent="WIyWlLk6GJQsqaUBKTNV-1" source="PgsVm0p4_of5vIdET5s7-19" target="PgsVm0p4_of5vIdET5s7-31">
          <mxGeometry relative="1" as="geometry" />
        </mxCell>
        <mxCell id="PgsVm0p4_of5vIdET5s7-19" value="尝试获取和转发请求&lt;div&gt;使用Eureka的数据&lt;/div&gt;" style="whiteSpace=wrap;html=1;rounded=1;strokeWidth=2;" vertex="1" parent="WIyWlLk6GJQsqaUBKTNV-1">
          <mxGeometry x="270" y="660" width="120" height="60" as="geometry" />
        </mxCell>
        <mxCell id="PgsVm0p4_of5vIdET5s7-26" value="N" style="edgeStyle=orthogonalEdgeStyle;rounded=0;orthogonalLoop=1;jettySize=auto;html=1;" edge="1" parent="WIyWlLk6GJQsqaUBKTNV-1" source="PgsVm0p4_of5vIdET5s7-23" target="PgsVm0p4_of5vIdET5s7-25">
          <mxGeometry relative="1" as="geometry" />
        </mxCell>
        <mxCell id="PgsVm0p4_of5vIdET5s7-29" value="Y" style="edgeStyle=orthogonalEdgeStyle;rounded=0;orthogonalLoop=1;jettySize=auto;html=1;" edge="1" parent="WIyWlLk6GJQsqaUBKTNV-1" source="PgsVm0p4_of5vIdET5s7-23" target="PgsVm0p4_of5vIdET5s7-28">
          <mxGeometry relative="1" as="geometry" />
        </mxCell>
        <mxCell id="PgsVm0p4_of5vIdET5s7-23" value="是否包含&lt;div&gt;有效的认证?&lt;/div&gt;" style="rhombus;whiteSpace=wrap;html=1;rounded=1;strokeWidth=2;" vertex="1" parent="WIyWlLk6GJQsqaUBKTNV-1">
          <mxGeometry x="650" y="490" width="80" height="80" as="geometry" />
        </mxCell>
        <mxCell id="PgsVm0p4_of5vIdET5s7-44" style="edgeStyle=orthogonalEdgeStyle;rounded=0;orthogonalLoop=1;jettySize=auto;html=1;entryX=1;entryY=0.5;entryDx=0;entryDy=0;" edge="1" parent="WIyWlLk6GJQsqaUBKTNV-1" source="PgsVm0p4_of5vIdET5s7-25" target="PgsVm0p4_of5vIdET5s7-41">
          <mxGeometry relative="1" as="geometry">
            <Array as="points">
              <mxPoint x="850" y="990" />
            </Array>
          </mxGeometry>
        </mxCell>
        <mxCell id="PgsVm0p4_of5vIdET5s7-25" value="产生状态码401的响应" style="whiteSpace=wrap;html=1;rounded=1;strokeWidth=2;" vertex="1" parent="WIyWlLk6GJQsqaUBKTNV-1">
          <mxGeometry x="790" y="500" width="120" height="60" as="geometry" />
        </mxCell>
        <mxCell id="PgsVm0p4_of5vIdET5s7-30" value="Y" style="edgeStyle=orthogonalEdgeStyle;rounded=0;orthogonalLoop=1;jettySize=auto;html=1;" edge="1" parent="WIyWlLk6GJQsqaUBKTNV-1" source="PgsVm0p4_of5vIdET5s7-28" target="PgsVm0p4_of5vIdET5s7-19">
          <mxGeometry relative="1" as="geometry" />
        </mxCell>
        <mxCell id="PgsVm0p4_of5vIdET5s7-28" value="解析并创建认证信息" style="whiteSpace=wrap;html=1;rounded=1;strokeWidth=2;" vertex="1" parent="WIyWlLk6GJQsqaUBKTNV-1">
          <mxGeometry x="630" y="660" width="120" height="60" as="geometry" />
        </mxCell>
        <mxCell id="PgsVm0p4_of5vIdET5s7-34" value="N" style="edgeStyle=orthogonalEdgeStyle;rounded=0;orthogonalLoop=1;jettySize=auto;html=1;" edge="1" parent="WIyWlLk6GJQsqaUBKTNV-1" source="PgsVm0p4_of5vIdET5s7-31" target="PgsVm0p4_of5vIdET5s7-33">
          <mxGeometry relative="1" as="geometry" />
        </mxCell>
        <mxCell id="PgsVm0p4_of5vIdET5s7-38" value="Y" style="edgeStyle=orthogonalEdgeStyle;rounded=0;orthogonalLoop=1;jettySize=auto;html=1;" edge="1" parent="WIyWlLk6GJQsqaUBKTNV-1" source="PgsVm0p4_of5vIdET5s7-31" target="PgsVm0p4_of5vIdET5s7-37">
          <mxGeometry relative="1" as="geometry" />
        </mxCell>
        <mxCell id="PgsVm0p4_of5vIdET5s7-31" value="目标服务&lt;div&gt;是否存在?&lt;/div&gt;" style="rhombus;whiteSpace=wrap;html=1;rounded=1;strokeWidth=2;" vertex="1" parent="WIyWlLk6GJQsqaUBKTNV-1">
          <mxGeometry x="290" y="790" width="80" height="80" as="geometry" />
        </mxCell>
        <mxCell id="PgsVm0p4_of5vIdET5s7-43" style="edgeStyle=orthogonalEdgeStyle;rounded=0;orthogonalLoop=1;jettySize=auto;html=1;" edge="1" parent="WIyWlLk6GJQsqaUBKTNV-1" source="PgsVm0p4_of5vIdET5s7-33" target="PgsVm0p4_of5vIdET5s7-41">
          <mxGeometry relative="1" as="geometry" />
        </mxCell>
        <mxCell id="PgsVm0p4_of5vIdET5s7-33" value="产生状态码503的响应" style="whiteSpace=wrap;html=1;rounded=1;strokeWidth=2;" vertex="1" parent="WIyWlLk6GJQsqaUBKTNV-1">
          <mxGeometry x="270" y="960" width="120" height="60" as="geometry" />
        </mxCell>
        <mxCell id="PgsVm0p4_of5vIdET5s7-40" value="" style="edgeStyle=orthogonalEdgeStyle;rounded=0;orthogonalLoop=1;jettySize=auto;html=1;" edge="1" parent="WIyWlLk6GJQsqaUBKTNV-1" source="PgsVm0p4_of5vIdET5s7-37" target="PgsVm0p4_of5vIdET5s7-39">
          <mxGeometry relative="1" as="geometry" />
        </mxCell>
        <mxCell id="PgsVm0p4_of5vIdET5s7-37" value="向目标服务实例&lt;div&gt;转发HTTP请求&lt;/div&gt;" style="shape=parallelogram;perimeter=parallelogramPerimeter;whiteSpace=wrap;html=1;fixedSize=1;rounded=1;strokeWidth=2;" vertex="1" parent="WIyWlLk6GJQsqaUBKTNV-1">
          <mxGeometry x="430" y="800" width="120" height="60" as="geometry" />
        </mxCell>
        <mxCell id="PgsVm0p4_of5vIdET5s7-42" value="" style="edgeStyle=orthogonalEdgeStyle;rounded=0;orthogonalLoop=1;jettySize=auto;html=1;" edge="1" parent="WIyWlLk6GJQsqaUBKTNV-1" source="PgsVm0p4_of5vIdET5s7-39" target="PgsVm0p4_of5vIdET5s7-41">
          <mxGeometry relative="1" as="geometry" />
        </mxCell>
        <mxCell id="PgsVm0p4_of5vIdET5s7-39" value="接收目标服务实例&lt;div&gt;的响应体&lt;/div&gt;" style="shape=parallelogram;perimeter=parallelogramPerimeter;whiteSpace=wrap;html=1;fixedSize=1;rounded=1;strokeWidth=2;" vertex="1" parent="WIyWlLk6GJQsqaUBKTNV-1">
          <mxGeometry x="630" y="800" width="120" height="60" as="geometry" />
        </mxCell>
        <mxCell id="PgsVm0p4_of5vIdET5s7-48" value="" style="edgeStyle=orthogonalEdgeStyle;rounded=0;orthogonalLoop=1;jettySize=auto;html=1;" edge="1" parent="WIyWlLk6GJQsqaUBKTNV-1" source="PgsVm0p4_of5vIdET5s7-41" target="PgsVm0p4_of5vIdET5s7-47">
          <mxGeometry relative="1" as="geometry" />
        </mxCell>
        <mxCell id="PgsVm0p4_of5vIdET5s7-41" value="发送HTTP响应" style="shape=parallelogram;perimeter=parallelogramPerimeter;whiteSpace=wrap;html=1;fixedSize=1;rounded=1;strokeWidth=2;" vertex="1" parent="WIyWlLk6GJQsqaUBKTNV-1">
          <mxGeometry x="630" y="960" width="120" height="60" as="geometry" />
        </mxCell>
        <mxCell id="PgsVm0p4_of5vIdET5s7-47" value="过程结束" style="strokeWidth=2;html=1;shape=mxgraph.flowchart.terminator;whiteSpace=wrap;" vertex="1" parent="WIyWlLk6GJQsqaUBKTNV-1">
          <mxGeometry x="640" y="1060" width="100" height="60" as="geometry" />
        </mxCell>
      </root>
    </mxGraphModel>
  </diagram>
</mxfile>
